- 
http://www.Speed.Cd 
       
http://www.Speed.Cd       the fast  and The Hottest Private Tracker on the net

(((--Registration will be open on june every weekend--)))

Please Seed back to make the speed Faster!!!

------------------nfo--------------------------
-








































          
          
              
              
                    
                    
                    
                    

Mars.Needs.Moms.2011.R5.DVDRip.XviD-SiC

Poster:
[img]http://leetleech.org/images/59568507769002917638.jpg[/img]

IMDB Link:
http://www.imdb.com/title/tt1305591/

Description:
A young boy named Milo gains a deeper appreciation for his 
mom after Martians come to Earth to take her away. 

Mediainfo:
General
Complete name                    : Mars.Needs.Moms.2011.R5.DVDRip.XviD-SiC.avi

Format                           : AVI
Format/Info                      : Audio Video Interleave
File size                        : 1.46 GiB
Duration                         : 1h 24mn
Overall bit rate                 : 2 468 Kbps

Video
ID                               : 0
Format                           : MPEG-4 Visual
Format profile                   : Advanced Simple@L5
Format settings, BVOP            : 1
Format settings, QPel            : No
Format settings, GMC             : No warppoints
Format settings, Matrix          : Default (H.263)
Codec ID                         : XVID
Codec ID/Hint                    : XviD
Duration                         : 1h 24mn
Bit rate                         : 2 076 Kbps
Width                            : 720 pixels
Height                           : 304 pixels
Display aspect ratio             : 2.35:1
Frame rate                       : 25.000 fps
Color space                      : YUV
Chroma subsampling               : 4:2:0
Bit depth                        : 8 bits
Scan type                        : Progressive
Compression mode                 : Lossy
Bits/(Pixel*Frame)               : 0.379
Stream size                      : 1.22 GiB (84%)
Writing library                  : XviD 1.2.1 (UTC 2008-12-04)

Audio
ID                               : 1
Format                           : AC-3
Format/Info                      : Audio Coding 3
Mode extension                   : CM (complete main)
Codec ID                         : 2000
Duration                         : 1h 24mn
Bit rate mode                    : Constant
Bit rate                         : 384 Kbps
Channel(s)                       : 6 channels
Channel positions                : Front: L C R, Side: L R, LFE
Sampling rate                    : 48.0 KHz
Bit depth                        : 16 bits
Compression mode                 : Lossy
Stream size                      : 232 MiB (16%)
Alignment                        : Aligned on interleaves
Interleave, duration             : 64 ms (1.60 video frames)
Interleave, preload duration     : 192 ms
Title                            : VTS_01_1 T80 3_2ch 384Kbps DELAY 0ms

Screenshots:
[img]http://leetleech.org/images/94642352351906911628.png[/img]
[img]http://leetleech.org/images/72316466097591383177.png[/img]
[img]http://leetleech.org/images/40480788453027036721.png[/img]
[img]http://leetleech.org/images/56520021238598088749.png[/img]
[img]http://leetleech.org/images/52775681421694240945.png[/img]

Note: N/A

Encoder: TheSL

Enjoy!

Respects to CaptainHomey, Cyanide, CM8, Rx, Pirate666, THC, ELEKTRI4KA, Killerhz, 
XtremE, PA, YeFsTe and everyone in the struggle...